<svg width="260" height="22" viewBox="0 0 260 22" fill="none" xmlns="http://www.w3.org/2000/svg">
<path d="M8.08 17V5.368H9.576V17H8.08ZM1.36 17V5.368H2.856V17H1.36ZM2.432 11.712V10.36H8.352L8.328 11.712H2.432ZM15.4038 17.12C14.6358 17.12 13.9611 16.9467 13.3798 16.6C12.8038 16.2533 12.3531 15.744 12.0278 15.072C11.7078 14.3947 11.5478 13.5653 11.5478 12.584C11.5478 11.656 11.7184 10.856 12.0598 10.184C12.4011 9.512 12.8651 8.99733 13.4518 8.64C14.0438 8.27733 14.7051 8.096 15.4358 8.096C16.2304 8.096 16.9158 8.27733 17.4918 8.64C18.0731 8.99733 18.5211 9.512 18.8358 10.184C19.1504 10.856 19.3078 11.656 19.3078 12.584C19.3078 13.5653 19.1318 14.3947 18.7798 15.072C18.4331 15.744 17.9638 16.2533 17.3718 16.6C16.7798 16.9467 16.1238 17.12 15.4038 17.12ZM15.4358 15.808C16.1504 15.808 16.7211 15.5413 17.1478 15.008C17.5744 14.4747 17.7878 13.6667 17.7878 12.584C17.7878 11.5493 17.5771 10.7627 17.1558 10.224C16.7398 9.68 16.1558 9.408 15.4038 9.408C14.6944 9.408 14.1264 9.68 13.6998 10.224C13.2784 10.7627 13.0678 11.5493 13.0678 12.584C13.0678 13.6293 13.2811 14.4293 13.7078 14.984C14.1398 15.5333 14.7158 15.808 15.4358 15.808ZM21.3276 17V8.272H22.5916L22.7596 11.56L22.6156 10.896C22.685 10.3787 22.829 9.90933 23.0476 9.488C23.2663 9.06133 23.5756 8.72267 23.9756 8.472C24.3756 8.216 24.8796 8.088 25.4876 8.088C26.197 8.088 26.7596 8.288 27.1756 8.688C27.597 9.08267 27.8556 9.69067 27.9516 10.512L27.9916 10.632V17H26.5036V11.56C26.5036 11.064 26.4503 10.664 26.3436 10.36C26.2423 10.056 26.077 9.83467 25.8476 9.696C25.6183 9.552 25.317 9.48 24.9436 9.48C24.4743 9.48 24.061 9.61067 23.7036 9.872C23.3463 10.1333 23.053 10.4933 22.8236 10.952V17H21.3276ZM31.6796 17V11.552C31.6796 11.0613 31.6263 10.664 31.5196 10.36C31.413 10.056 31.245 9.83467 31.0156 9.696C30.7916 9.552 30.493 9.48 30.1196 9.48C29.6503 9.48 29.237 9.61067 28.8796 9.872C28.5223 10.1333 28.2263 10.4933 27.9916 10.952L27.9596 11.56L27.8156 10.992C27.8743 10.4853 28.0103 10.0107 28.2236 9.568C28.437 9.12533 28.741 8.768 29.1356 8.496C29.5356 8.224 30.037 8.088 30.6396 8.088C31.4343 8.088 32.053 8.33867 32.4956 8.84C32.9436 9.34133 33.1676 10.0827 33.1676 11.064V17H31.6796ZM39.0695 17.12C38.2748 17.12 37.5762 16.9467 36.9735 16.6C36.3762 16.2533 35.9122 15.744 35.5815 15.072C35.2508 14.3947 35.0855 13.568 35.0855 12.592C35.0855 11.6533 35.2562 10.848 35.5975 10.176C35.9388 9.504 36.4082 8.98933 37.0055 8.632C37.6028 8.27467 38.2828 8.096 39.0455 8.096C39.8028 8.096 40.4508 8.25867 40.9895 8.584C41.5335 8.90933 41.9522 9.376 42.2455 9.984C42.5388 10.5867 42.6828 11.3093 42.6775 12.152C42.6775 12.3227 42.6722 12.464 42.6615 12.576C42.6508 12.688 42.6428 12.8053 42.6375 12.928H36.5735C36.6108 13.888 36.8508 14.616 37.2935 15.112C37.7415 15.6027 38.3122 15.848 39.0055 15.848C39.5922 15.848 40.0455 15.7253 40.3655 15.48C40.6908 15.2293 40.8962 14.9093 40.9815 14.52H42.4375C42.4002 15.0747 42.2295 15.5467 41.9255 15.936C41.6268 16.3253 41.2322 16.6213 40.7415 16.824C40.2508 17.0213 39.6935 17.12 39.0695 17.12ZM37.3655 11.808H41.1815C41.1708 11.0613 40.9868 10.4747 40.6295 10.048C40.2722 9.62133 39.7255 9.408 38.9895 9.408C38.2162 9.408 37.6295 9.672 37.2295 10.2C36.8295 10.7227 36.6108 11.4453 36.5735 12.368C36.6162 12.1493 36.7015 12.0027 36.8295 11.928C36.9628 11.848 37.1415 11.808 37.3655 11.808Z" fill="#436D7C"/>
<path fill-rule="evenodd" clip-rule="evenodd" d="M65.293 15.707C65.1055 15.5195 65.0002 15.2652 65.0002 15C65.0002 14.7348 65.1055 14.4805 65.293 14.293L68.586 11L65.293 7.70701C65.1108 7.51841 65.01 7.26581 65.0123 7.00361C65.0146 6.74141 65.1198 6.4906 65.3052 6.30519C65.4906 6.11978 65.7414 6.01461 66.0036 6.01234C66.2658 6.01006 66.5184 6.11085 66.707 6.29301L70.707 10.293C70.8945 10.4805 70.9998 10.7348 70.9998 11C70.9998 11.2652 70.8945 11.5195 70.707 11.707L66.707 15.707C66.5195 15.8945 66.2652 15.9998 66 15.9998C65.7348 15.9998 65.4805 15.8945 65.293 15.707Z" fill="#D1D5DB"/>
<path d="M94.672 17V15.544H96.648C97.4213 15.544 98.0987 15.3787 98.68 15.048C99.2667 14.712 99.7227 14.216 100.048 13.56C100.379 12.904 100.544 12.0933 100.544 11.128C100.544 10.1093 100.379 9.28 100.048 8.64C99.7227 8 99.2667 7.528 98.68 7.224C98.0933 6.92 97.4133 6.768 96.64 6.768H94.608V5.368H96.688C97.744 5.368 98.6773 5.57067 99.488 5.976C100.304 6.376 100.944 7 101.408 7.848C101.872 8.696 102.104 9.784 102.104 11.112C102.104 12.4027 101.864 13.4853 101.384 14.36C100.909 15.2347 100.264 15.8933 99.448 16.336C98.632 16.7787 97.7147 17 96.696 17H94.672ZM93.36 17V5.368H94.872V17H93.36ZM107.451 17.12C106.683 17.12 106.008 16.9467 105.427 16.6C104.851 16.2533 104.4 15.744 104.075 15.072C103.755 14.3947 103.595 13.5653 103.595 12.584C103.595 11.656 103.765 10.856 104.107 10.184C104.448 9.512 104.912 8.99733 105.499 8.64C106.091 8.27733 106.752 8.096 107.483 8.096C108.277 8.096 108.963 8.27733 109.539 8.64C110.12 8.99733 110.568 9.512 110.883 10.184C111.197 10.856 111.355 11.656 111.355 12.584C111.355 13.5653 111.179 14.3947 110.827 15.072C110.48 15.744 110.011 16.2533 109.419 16.6C108.827 16.9467 108.171 17.12 107.451 17.12ZM107.483 15.808C108.197 15.808 108.768 15.5413 109.195 15.008C109.621 14.4747 109.835 13.6667 109.835 12.584C109.835 11.5493 109.624 10.7627 109.203 10.224C108.787 9.68 108.203 9.408 107.451 9.408C106.741 9.408 106.173 9.68 105.747 10.224C105.325 10.7627 105.115 11.5493 105.115 12.584C105.115 13.6293 105.328 14.4293 105.755 14.984C106.187 15.5333 106.763 15.808 107.483 15.808ZM116.751 17.144C115.94 17.144 115.236 16.96 114.639 16.592C114.041 16.224 113.58 15.7013 113.255 15.024C112.929 14.3467 112.767 13.5493 112.767 12.632C112.767 11.6667 112.932 10.848 113.263 10.176C113.599 9.504 114.06 8.992 114.647 8.64C115.239 8.28267 115.913 8.104 116.671 8.104C117.396 8.104 118.012 8.24533 118.519 8.528C119.025 8.80533 119.412 9.176 119.679 9.64C119.951 10.104 120.095 10.616 120.111 11.176H118.647C118.636 10.9627 118.591 10.752 118.511 10.544C118.431 10.336 118.311 10.1493 118.151 9.984C117.991 9.81333 117.785 9.67733 117.535 9.576C117.289 9.46933 116.993 9.416 116.647 9.416C115.841 9.41067 115.247 9.69067 114.863 10.256C114.479 10.8213 114.287 11.5973 114.287 12.584C114.287 13.64 114.5 14.4453 114.927 15C115.353 15.5547 115.993 15.832 116.847 15.832C117.177 15.832 117.473 15.7573 117.735 15.608C117.996 15.4587 118.204 15.264 118.359 15.024C118.519 14.784 118.604 14.528 118.615 14.256H120.079C120.063 14.8053 119.908 15.2987 119.615 15.736C119.321 16.1733 118.927 16.5173 118.431 16.768C117.935 17.0187 117.375 17.144 116.751 17.144ZM124.299 17.176C123.547 17.176 122.941 16.92 122.483 16.408C122.024 15.896 121.795 15.1813 121.795 14.264V8.272H123.283V13.864C123.283 14.3013 123.333 14.6613 123.435 14.944C123.536 15.2267 123.696 15.4373 123.915 15.576C124.139 15.7093 124.427 15.7787 124.779 15.784C125.259 15.784 125.675 15.656 126.027 15.4C126.384 15.1387 126.68 14.7787 126.915 14.32V8.272H128.395V17H127.131L126.963 13.968L127.123 14.368C127.053 14.88 126.907 15.3493 126.683 15.776C126.464 16.1973 126.157 16.536 125.763 16.792C125.373 17.048 124.885 17.176 124.299 17.176ZM131.046 17V8.272H132.31L132.478 11.56L132.334 10.896C132.404 10.3787 132.548 9.90933 132.766 9.488C132.985 9.06133 133.294 8.72267 133.694 8.472C134.094 8.216 134.598 8.088 135.206 8.088C135.916 8.088 136.478 8.288 136.894 8.688C137.316 9.08267 137.574 9.69067 137.67 10.512L137.71 10.632V17H136.222V11.56C136.222 11.064 136.169 10.664 136.062 10.36C135.961 10.056 135.796 9.83467 135.566 9.696C135.337 9.552 135.036 9.48 134.662 9.48C134.193 9.48 133.78 9.61067 133.422 9.872C133.065 10.1333 132.772 10.4933 132.542 10.952V17H131.046ZM141.398 17V11.552C141.398 11.0613 141.345 10.664 141.238 10.36C141.132 10.056 140.964 9.83467 140.734 9.696C140.51 9.552 140.212 9.48 139.838 9.48C139.369 9.48 138.956 9.61067 138.598 9.872C138.241 10.1333 137.945 10.4933 137.71 10.952L137.678 11.56L137.534 10.992C137.593 10.4853 137.729 10.0107 137.942 9.568C138.156 9.12533 138.46 8.768 138.854 8.496C139.254 8.224 139.756 8.088 140.358 8.088C141.153 8.088 141.772 8.33867 142.214 8.84C142.662 9.34133 142.886 10.0827 142.886 11.064V17H141.398ZM148.788 17.12C147.994 17.12 147.295 16.9467 146.692 16.6C146.095 16.2533 145.631 15.744 145.3 15.072C144.97 14.3947 144.804 13.568 144.804 12.592C144.804 11.6533 144.975 10.848 145.316 10.176C145.658 9.504 146.127 8.98933 146.724 8.632C147.322 8.27467 148.002 8.096 148.764 8.096C149.522 8.096 150.17 8.25867 150.708 8.584C151.252 8.90933 151.671 9.376 151.964 9.984C152.258 10.5867 152.402 11.3093 152.396 12.152C152.396 12.3227 152.391 12.464 152.38 12.576C152.37 12.688 152.362 12.8053 152.356 12.928H146.292C146.33 13.888 146.57 14.616 147.012 15.112C147.46 15.6027 148.031 15.848 148.724 15.848C149.311 15.848 149.764 15.7253 150.084 15.48C150.41 15.2293 150.615 14.9093 150.7 14.52H152.156C152.119 15.0747 151.948 15.5467 151.644 15.936C151.346 16.3253 150.951 16.6213 150.46 16.824C149.97 17.0213 149.412 17.12 148.788 17.12ZM147.084 11.808H150.9C150.89 11.0613 150.706 10.4747 150.348 10.048C149.991 9.62133 149.444 9.408 148.708 9.408C147.935 9.408 147.348 9.672 146.948 10.2C146.548 10.7227 146.33 11.4453 146.292 12.368C146.335 12.1493 146.42 12.0027 146.548 11.928C146.682 11.848 146.86 11.808 147.084 11.808ZM154.343 17V8.272H155.607L155.767 11.56L155.623 10.896C155.693 10.3787 155.837 9.90933 156.055 9.488C156.279 9.06133 156.591 8.72267 156.991 8.472C157.397 8.216 157.906 8.088 158.519 8.088C159.33 8.088 159.959 8.33867 160.407 8.84C160.861 9.336 161.087 10.0773 161.087 11.064V17H159.599V11.552C159.599 11.056 159.543 10.656 159.431 10.352C159.325 10.048 159.151 9.82667 158.911 9.688C158.677 9.54933 158.362 9.48 157.967 9.48C157.493 9.48 157.074 9.61067 156.711 9.872C156.354 10.1333 156.061 10.4933 155.831 10.952V17H154.343ZM165.927 17.12C165.25 17.12 164.732 16.9467 164.375 16.6C164.023 16.248 163.847 15.7493 163.847 15.104V10.368C163.847 10.1973 163.882 10.04 163.951 9.896C164.02 9.74667 164.122 9.65067 164.255 9.608L163.847 8.616V8.344L164.207 5.736H165.319V14.856C165.319 15.1973 165.399 15.4293 165.559 15.552C165.719 15.6693 165.994 15.728 166.383 15.728C166.666 15.728 166.906 15.728 167.103 15.728C167.3 15.7227 167.506 15.712 167.719 15.696V17.008C167.426 17.0613 167.122 17.0933 166.807 17.104C166.498 17.1147 166.204 17.12 165.927 17.12ZM162.575 9.608V8.272H167.647V9.608H162.575ZM172.338 17.136C171.735 17.136 171.183 17.0453 170.682 16.864C170.186 16.6773 169.783 16.3893 169.474 16C169.165 15.6053 168.991 15.0987 168.954 14.48H170.426C170.522 15.0133 170.733 15.3813 171.058 15.584C171.389 15.7813 171.807 15.88 172.314 15.88C172.661 15.88 172.973 15.8427 173.25 15.768C173.533 15.6933 173.757 15.568 173.922 15.392C174.087 15.216 174.17 14.976 174.17 14.672C174.17 14.4373 174.119 14.248 174.018 14.104C173.917 13.96 173.775 13.8427 173.594 13.752C173.413 13.656 173.199 13.5733 172.954 13.504C172.714 13.4347 172.453 13.36 172.17 13.28C171.642 13.1253 171.154 12.9467 170.706 12.744C170.258 12.536 169.898 12.2587 169.626 11.912C169.354 11.5653 169.218 11.1013 169.218 10.52C169.218 9.80533 169.49 9.22667 170.034 8.784C170.578 8.336 171.293 8.112 172.178 8.112C172.738 8.112 173.242 8.19733 173.69 8.368C174.143 8.53867 174.511 8.81333 174.794 9.192C175.082 9.56533 175.258 10.0667 175.322 10.696H173.858C173.805 10.408 173.706 10.1653 173.562 9.968C173.423 9.77067 173.239 9.62133 173.01 9.52C172.781 9.41867 172.501 9.368 172.17 9.368C171.893 9.368 171.642 9.408 171.418 9.488C171.194 9.56267 171.015 9.68267 170.882 9.848C170.749 10.0133 170.682 10.232 170.682 10.504C170.682 10.8027 170.762 11.0427 170.922 11.224C171.082 11.4053 171.309 11.5573 171.602 11.68C171.895 11.7973 172.239 11.9147 172.634 12.032C172.938 12.128 173.263 12.2293 173.61 12.336C173.957 12.4373 174.282 12.5733 174.586 12.744C174.895 12.9147 175.146 13.144 175.338 13.432C175.535 13.7147 175.634 14.0853 175.634 14.544C175.634 15.3653 175.33 16.0027 174.722 16.456C174.114 16.9093 173.319 17.136 172.338 17.136Z" fill="#B5BDCD"/>
</svg>
