<?xml version="1.0" encoding="UTF-8" standalone="no"?>
<!-- Created with Inkscape (http://www.inkscape.org/) -->

<svg
   width="9.2277393mm"
   height="9.2277479mm"
   viewBox="0 0 9.2277393 9.2277479"
   version="1.1"
   id="svg1"
   xml:space="preserve"
   sodipodi:docname="user-dark.svg"
   xmlns:inkscape="http://www.inkscape.org/namespaces/inkscape"
   xmlns:sodipodi="http://sodipodi.sourceforge.net/DTD/sodipodi-0.dtd"
   xmlns="http://www.w3.org/2000/svg"
   xmlns:svg="http://www.w3.org/2000/svg"><sodipodi:namedview
     id="namedview1"
     pagecolor="#505050"
     bordercolor="#eeeeee"
     borderopacity="1"
     inkscape:showpageshadow="0"
     inkscape:pageopacity="0"
     inkscape:pagecheckerboard="0"
     inkscape:deskcolor="#505050"
     inkscape:document-units="mm"
     showgrid="false"><inkscape:page
       x="0"
       y="0"
       width="9.2277393"
       height="9.2277479"
       id="page2"
       margin="0"
       bleed="0" /></sodipodi:namedview><defs
     id="defs1" /><path
     d="m 4.6138704,1.0759599 c -1.8819337,0 -3.4075626,1.5256289 -3.4075626,3.4075625 0,0.699232 0.3739284,1.3380614 0.9898592,1.8046704 C 2.4901514,6.5109214 2.8384798,6.6935919 3.2252508,6.8237357 2.4276035,6.3494282 1.8931035,5.4788841 1.8931035,4.4835224 c 0,-1.5026341 1.2181328,-2.7207669 2.7207669,-2.7207669 1.5026341,0 2.7207747,1.2181328 2.7207747,2.7207669 0,0.9953617 -0.5345078,1.8659058 -1.3321552,2.3402133 C 6.3892612,6.6935919 6.7375897,6.5109214 7.0315741,6.2881928 7.6475099,5.8215838 8.0214329,5.1827544 8.0214329,4.4835224 c 0,-1.8819336 -1.5256289,-3.4075625 -3.4075625,-3.4075625 z"
     fill="#ffffff"
     id="path1-8"
     style="fill:#666666;fill-opacity:1;stroke-width:0.252412" /><path
     d="m 7.1761556,4.4835224 c 0,-1.4150975 -1.1471873,-2.5622849 -2.5622852,-2.5622849 -1.4150976,0 -2.562285,1.1471874 -2.562285,2.5622849 0,0.4620152 0.2753562,0.8893235 0.739012,1.2046112 0.2287608,0.1555363 0.5016941,0.282424 0.8055983,0.3710205 C 3.0799877,5.7250364 2.7383986,5.1441858 2.7383986,4.4835224 c 0,-1.0357978 0.8396739,-1.8754717 1.8754718,-1.8754717 1.0357982,0 1.875472,0.8396739 1.875472,1.8754717 0,0.6606634 -0.3415893,1.241514 -0.857797,1.5756317 C 5.9354495,5.9705576 6.2083825,5.8436699 6.4371437,5.6881336 6.9007991,5.3728459 7.1761556,4.9455376 7.1761556,4.4835224 Z"
     fill="#ffffff"
     id="path2"
     style="fill:#666666;fill-opacity:1;stroke-width:0.252412" /><path
     d="m 6.330853,4.4835224 c 0,-0.9482614 -0.7687209,-1.7169823 -1.7169826,-1.7169823 -0.9482614,0 -1.7169823,0.7687209 -1.7169823,1.7169823 0,0.2187908 0.1688888,0.4355875 0.4839243,0.6023814 0.1663648,0.088067 0.368143,0.1588935 0.594077,0.205741 C 3.7365619,5.102967 3.5836759,4.8111029 3.5836759,4.4835224 c 0,-0.5689617 0.4612327,-1.0301944 1.0301945,-1.0301944 0.5689621,0 1.0301945,0.4612327 1.0301945,1.0301944 0,0.3275805 -0.1528861,0.6194446 -0.3912132,0.8081224 C 5.4787856,5.2447973 5.6805638,5.1739703 5.8469286,5.0859038 6.1619641,4.9191099 6.330853,4.7023132 6.330853,4.4835224 Z"
     fill="#ffffff"
     id="path3"
     style="fill:#666666;fill-opacity:1;stroke-width:0.252412" /><path
     d="m 4.6138704,5.5137169 c -0.5063133,0 -0.968606,-0.1084865 -1.3072166,-0.2877244 C 3.177242,5.1574627 3.0630257,5.0768421 2.9715767,4.9859991 3.18643,5.689118 3.8404295,6.200505 4.6138704,6.200505 5.3873112,6.200505 6.0413111,5.689118 6.256164,4.9859991 6.1647158,5.0768419 6.0504987,5.1574627 5.9210872,5.2259925 5.5824763,5.4052303 5.1201837,5.5137169 4.6138704,5.5137169 Z"
     fill="#ffffff"
     id="path4"
     style="fill:#666666;fill-opacity:1;stroke-width:0.252412" /><path
     d="m 2.7014705,5.8191861 c 0.4928094,0.3351021 1.1691725,0.5398084 1.9123999,0.5398084 0.7432273,0 1.4195907,-0.2047063 1.9123998,-0.5398084 C 6.7231011,5.685332 6.8917376,5.5297704 7.0232697,5.3573478 6.6660055,6.3422091 5.7221107,7.0458077 4.6138704,7.0458077 c -1.1082402,0 -2.0521351,-0.7035986 -2.409399,-1.6884599 0.1315318,0.1724226 0.3001682,0.3279842 0.4969991,0.4618383 z"
     fill="#ffffff"
     id="path5"
     style="fill:#666666;fill-opacity:1;stroke-width:0.252412" /><path
     d="m 2.1004776,6.4145252 c 0.645973,0.4893762 1.5348671,0.7897719 2.5133928,0.7897719 0.978526,0 1.8674201,-0.3003957 2.513393,-0.7897719 C 7.3911855,6.2145895 7.6151506,5.9824967 7.7877751,5.7261217 7.2911798,6.9935583 6.057339,7.891085 4.6138704,7.891085 c -1.4434687,0 -2.6773118,-0.8975267 -3.1738998,-2.1649633 0.1726097,0.256375 0.3965773,0.4884678 0.660507,0.6884035 z"
     fill="#ffffff"
     id="path6"
     style="fill:#666666;fill-opacity:1;stroke-width:0.252412" /></svg>
