<?xml version="1.0" encoding="UTF-8" standalone="no"?>
<!-- Created with Inkscape (http://www.inkscape.org/) -->

<svg
   width="9.2277393mm"
   height="9.2277479mm"
   viewBox="0 0 9.2277393 9.2277479"
   version="1.1"
   id="svg1"
   xml:space="preserve"
   xmlns="http://www.w3.org/2000/svg"
   xmlns:svg="http://www.w3.org/2000/svg"><defs
     id="defs1" /><g
     id="layer1"
     transform="translate(-91.09736,-132.14764)"><g
       style="fill:none"
       id="g1"
       transform="matrix(0.26458333,0,0,0.26458333,82.814584,144.21507)"><rect
         style="fill:#000000"
         id="rect1"
         width="34.876511"
         height="34.876511"
         x="-3.5611672"
         y="-45.60915"
         ry="0" /><path
         fill-rule="evenodd"
         clip-rule="evenodd"
         d="m -1.9409661,-28.170868 c 0,-8.736112 7.0819919,-15.818108 15.8180541,-15.818108 8.736125,0 15.818054,7.081996 15.818054,15.818108 0,3.245947 -1.735708,6.211209 -4.595028,8.377292 -1.364661,1.033872 -2.981589,1.881909 -4.776999,2.486154 3.702745,-2.201854 6.183913,-6.242867 6.183913,-10.863446 0,-6.975351 -5.654576,-12.629964 -12.62994,-12.629964 -6.9753015,0 -12.6299145,5.654613 -12.6299145,12.629964 0,4.620579 2.481218,8.661592 6.183938,10.863446 -1.7954723,-0.604245 -3.4123634,-1.452282 -4.7770494,-2.486154 -2.85923248,-2.166083 -4.5950282,-5.131345 -4.5950282,-8.377292 z M 13.877088,-40.065107 c 6.569044,0 11.894202,5.32522 11.894202,11.894239 0,2.144646 -1.278163,4.128259 -3.430411,5.591758 -1.061916,0.722153 -2.328985,1.311067 -3.739638,1.722372 2.39629,-1.550995 3.981934,-4.247412 3.981934,-7.31413 0,-4.808258 -3.897803,-8.706099 -8.706087,-8.706099 -4.8082086,0 -8.7060493,3.897841 -8.7060493,8.706099 0,3.066718 1.5857066,5.763135 3.9819214,7.31413 -1.4106525,-0.411305 -2.6776598,-1.000219 -3.7395878,-1.722372 -2.1523109,-1.463499 -3.4304733,-3.447112 -3.4304733,-5.591758 0,-6.569019 5.3252197,-11.894239 11.894189,-11.894239 z m 7.970349,11.894239 c 0,-4.401939 -3.568385,-7.970386 -7.970349,-7.970386 -4.401876,0 -7.9703239,3.568447 -7.9703239,7.970386 0,1.01555 0.7839729,2.022002 2.2464624,2.796253 0.7721945,0.408813 1.708949,0.737483 2.7577275,0.955101 -1.1063239,-0.875956 -1.8160502,-2.23077 -1.8160502,-3.751354 0,-2.641203 2.1411052,-4.782247 4.7821842,-4.782247 2.641203,0 4.782234,2.141044 4.782234,4.782247 0,1.520584 -0.709688,2.875398 -1.815975,3.751354 1.048704,-0.217618 1.985483,-0.546288 2.757615,-0.955101 1.462502,-0.774251 2.246475,-1.780703 2.246475,-2.796253 z m -14.0384481,3.44649 c 1.5718098,0.832083 3.7178011,1.335745 6.0680991,1.335745 2.350298,0 4.496315,-0.503662 6.068124,-1.335745 0.600755,-0.318077 1.130965,-0.692364 1.555482,-1.114015 -0.997353,3.263895 -4.033285,5.637874 -7.623606,5.637874 -3.590321,0 -6.626203,-2.373979 -7.6235935,-5.637874 0.4245543,0.421651 0.9547643,0.795938 1.5554944,1.114015 z m -2.8093275,2.753626 c 2.2876303,1.555607 5.4273856,2.505971 8.8774266,2.505971 3.450104,0 6.589859,-0.950364 8.877464,-2.505971 0.913721,-0.62132 1.696572,-1.343472 2.307174,-2.143773 -1.658433,4.571721 -6.040081,7.837859 -11.184638,7.837859 -5.1444819,0 -9.5261423,-3.266138 -11.1845627,-7.837859 0.610589,0.800301 1.3934401,1.522453 2.3071361,2.143773 z m 8.8774266,6.429824 c -4.5423679,0 -8.6686081,-1.39445 -11.667298,-3.666101 -1.22515384,-0.928179 -2.26482148,-2.00555 -3.06607916,-3.195593 2.30518926,5.883411 8.03274036,10.049809 14.73337716,10.049809 6.700662,0 12.428275,-4.166398 14.733455,-10.049809 -0.801298,1.190043 -1.840903,2.267414 -3.066094,3.195593 -2.998665,2.271651 -7.12493,3.666101 -11.667361,3.666101 z"
         fill="#1f4451"
         id="path1"
         style="fill:#ffffff;stroke-width:1.24638" /><rect
         style="fill:#000000"
         id="rect2"
         width="34.876511"
         height="34.876511"
         x="31.304976"
         y="-45.60915"
         ry="0" /><path
         d="m 48.743231,-40.107718 c -6.320381,0 -11.44413,5.123749 -11.44413,11.44413 0,2.348336 1.25582,4.493813 3.324393,6.060896 0.987332,0.748023 2.157176,1.361513 3.456127,1.798594 -2.678859,-1.592938 -4.473951,-4.516617 -4.473951,-7.85949 0,-5.046522 4.091039,-9.137561 9.137561,-9.137561 5.046522,0 9.137587,4.091039 9.137587,9.137561 0,3.342873 -1.795118,6.266552 -4.473977,7.85949 1.298952,-0.437081 2.468796,-1.050571 3.456128,-1.798594 2.06859,-1.567083 3.324392,-3.71256 3.324392,-6.060896 0,-6.320381 -5.123749,-11.44413 -11.44413,-11.44413 z"
         fill="#ffffff"
         id="path1-8"
         style="stroke-width:0.847713" /><path
         d="m 57.348539,-28.663588 c 0,-4.752535 -3.852772,-8.605307 -8.605308,-8.605307 -4.752535,0 -8.605307,3.852772 -8.605307,8.605307 0,1.551655 0.92477,2.986749 2.481935,4.045627 0.768282,0.522361 1.684915,0.948507 2.705562,1.246054 -1.733659,-1.122118 -2.880869,-3.072876 -2.880869,-5.291681 0,-3.478676 2.820003,-6.298679 6.298679,-6.298679 3.478677,0 6.29868,2.820003 6.29868,6.298679 0,2.218805 -1.147211,4.169563 -2.880869,5.291681 1.020647,-0.297547 1.937279,-0.723693 2.705562,-1.246054 1.557164,-1.058878 2.481935,-2.493972 2.481935,-4.045627 z"
         fill="#ffffff"
         id="path2"
         style="stroke-width:0.847713" /><path
         d="m 54.509632,-28.663588 c 0,-3.184689 -2.581711,-5.7664 -5.766401,-5.7664 -3.184689,0 -5.7664,2.581711 -5.7664,5.7664 0,0.734798 0.567205,1.462899 1.625236,2.023068 0.558728,0.295767 1.23639,0.533636 1.995178,0.690971 -0.800411,-0.633665 -1.313871,-1.613876 -1.313871,-2.714039 0,-1.91083 1.549027,-3.459857 3.459857,-3.459857 1.910831,0 3.459857,1.549027 3.459857,3.459857 0,1.100163 -0.51346,2.080374 -1.31387,2.714039 0.758788,-0.157335 1.43645,-0.395204 1.995178,-0.690971 1.058031,-0.560169 1.625236,-1.28827 1.625236,-2.023068 z"
         fill="#ffffff"
         id="path3"
         style="stroke-width:0.847713" /><path
         d="m 48.743231,-25.203731 c -1.700428,0 -3.253015,-0.364347 -4.390222,-0.966308 -0.434623,-0.230154 -0.818213,-0.500914 -1.12534,-0.806006 0.721574,2.36139 2.917999,4.078858 5.515562,4.078858 2.597563,0 4.793989,-1.717468 5.515562,-4.078858 -0.307126,0.305092 -0.690717,0.575852 -1.125339,0.806006 -1.137208,0.601961 -2.689795,0.966308 -4.390223,0.966308 z"
         fill="#ffffff"
         id="path4"
         style="stroke-width:0.847713" /><path
         d="m 42.320531,-24.177828 c 1.655076,1.125424 3.926608,1.81292 6.4227,1.81292 2.496092,0 4.767625,-0.687496 6.4227,-1.81292 0.661047,-0.449542 1.227404,-0.971988 1.669148,-1.551061 -1.199854,3.307608 -4.369878,5.670609 -8.091848,5.670609 -3.72197,0 -6.891994,-2.363001 -8.091847,-5.670609 0.441743,0.579073 1.0081,1.101519 1.669147,1.551061 z"
         fill="#ffffff"
         id="path5"
         style="stroke-width:0.847713" /><path
         d="m 40.302126,-22.178411 c 2.169468,1.643546 5.154775,2.65241 8.441105,2.65241 3.286331,0 6.271638,-1.008864 8.441106,-2.65241 0.886369,-0.671474 1.638545,-1.450946 2.218296,-2.311969 -1.667791,4.256623 -5.811584,7.270922 -10.659402,7.270922 -4.847818,0 -8.991619,-3.014299 -10.659385,-7.270922 0.579701,0.861023 1.331885,1.640495 2.21828,2.311969 z"
         fill="#ffffff"
         id="path6"
         style="stroke-width:0.847713" /></g></g></svg>
