<svg width="168" height="32" viewBox="0 0 168 32" fill="none" xmlns="http://www.w3.org/2000/svg">
<path fill-rule="evenodd" clip-rule="evenodd" d="M97.8459 7.63946H94.4805L98.0815 5.55291L102.053 0V5.78849H106.932V7.63946H102.053V19.9232C102.053 22.1107 102.692 22.952 104.476 22.952C105.519 22.952 106.63 22.5145 107.269 22.0434C106.899 24.2982 104.981 25.678 102.625 25.678C99.6632 25.678 97.8459 23.928 97.8459 20.428V7.63946ZM32.0549 0.235577H39.3579L51.9781 18.3751L51.8772 4.03848C51.8772 2.35578 50.3964 1.54808 47.1992 0.235577H57.1272C55.007 1.2452 53.93 2.52405 53.93 4.03848V25.6107H51.7089L37.0357 4.57694L37.1367 21.7068C37.1367 23.3895 38.6175 24.2645 41.8146 25.4761H31.8867C33.9732 24.4665 35.0838 23.2213 35.0838 21.7068V3.76925C35.0838 2.25482 34.1415 1.2452 32.0549 0.235577ZM73.8453 15.6491H61.5616C61.7299 19.9905 64.5568 22.7164 68.1578 22.7164C70.3117 22.7164 72.4319 21.7068 73.6097 20.2597C73.3405 23.7597 69.9415 25.8799 66.6434 25.8799C61.427 25.8799 57.2876 22.0434 57.2876 15.6491C57.2876 9.15389 61.5616 5.38464 66.1049 5.38464C70.7155 5.38464 73.9463 9.08658 73.9463 14.202C73.9463 14.6058 73.9463 15.077 73.8453 15.6491ZM66.0376 7.63946C63.7155 7.63946 61.7972 9.86062 61.5616 14.3029L69.9751 13.7981C69.7732 9.92793 68.3597 7.63946 66.0376 7.63946ZM81.1911 11.3077V5.55291L74.4603 6.46157L77.1526 8.14427V28.5049C77.1526 29.8511 76.5468 30.8607 74.4603 31.8703H84.893C82.268 30.8607 81.3594 30.0194 81.3594 28.5049V20.6972C82.0324 23.6924 84.2536 25.8799 87.3161 25.8799C91.0181 25.8799 94.821 22.4472 94.821 15.6491C94.821 8.81735 91.0181 5.38464 87.3161 5.38464C83.9844 5.38464 81.7296 8.00965 81.1911 11.3077ZM85.6334 7.976C88.2584 7.976 90.4459 10.601 90.4459 15.6491C90.4459 20.6972 88.2584 23.2886 85.6334 23.2886C83.244 23.2886 81.3594 20.9328 81.3594 17.7357V13.5289C81.3594 10.3318 83.244 7.976 85.6334 7.976ZM122.065 25.4761H128.796C126.676 24.4665 126.103 23.4568 126.103 22.1107V5.51925L118.868 6.46157L121.897 8.14427V18.5097C121.897 21.6059 120.113 22.952 118.026 22.952C115.839 22.952 114.661 21.7741 114.661 18.678V5.51925L107.762 6.46157L110.454 8.14427V18.4087C110.454 23.2213 112.474 25.8799 116.175 25.8799C118.868 25.8799 121.089 23.928 122.065 20.8318V25.4761ZM141.408 25.4761C143.326 24.4665 143.932 23.4568 143.932 22.1107V12.7885C143.932 9.6587 142.586 8.31254 140.398 8.31254C138.278 8.31254 136.528 9.6587 136.528 12.7885V22.1107C136.528 23.4568 137.1 24.4665 139.052 25.4761H129.629C131.716 24.4665 132.322 23.4568 132.322 22.1107V8.14427L129.629 6.46157L136.36 5.55291V10.4664C137.302 7.37022 139.557 5.38464 142.249 5.38464C145.951 5.38464 148.139 8.24523 148.139 13.0241V22.1107C148.139 23.4568 148.711 24.4665 150.831 25.4761H141.408ZM155.615 15.6491H167.899C168 15.077 168 14.6058 168 14.202C168 9.08658 164.769 5.38464 160.159 5.38464C155.615 5.38464 151.341 9.15389 151.341 15.6491C151.341 22.0434 155.481 25.8799 160.697 25.8799C163.995 25.8799 167.394 23.7597 167.663 20.2597C166.486 21.7068 164.365 22.7164 162.212 22.7164C158.611 22.7164 155.784 19.9905 155.615 15.6491ZM155.615 14.3029C155.851 9.86062 157.769 7.63946 160.091 7.63946C162.413 7.63946 163.827 9.92793 164.029 13.7981L155.615 14.3029ZM0 12.8335C0 5.82431 5.68205 0.142257 12.6912 0.142257C19.7004 0.142257 25.3824 5.82431 25.3824 12.8335C25.3824 15.4378 23.9898 17.8169 21.6957 19.5548C20.6008 20.3843 19.3035 21.0647 17.863 21.5495C20.8338 19.7829 22.8245 16.5407 22.8245 12.8335C22.8245 7.23701 18.2877 2.70018 12.6912 2.70018C7.09475 2.70018 2.55792 7.23701 2.55792 12.8335C2.55792 16.5407 4.54866 19.7829 7.51944 21.5495C6.07889 21.0647 4.78162 20.3843 3.6867 19.5548C1.39267 17.8169 0 15.4378 0 12.8335ZM12.6912 3.29047C17.9617 3.29047 22.2342 7.56302 22.2342 12.8335C22.2342 14.5542 21.2087 16.1457 19.4819 17.3199C18.6299 17.8993 17.6133 18.3718 16.4815 18.7018C18.4041 17.4574 19.6763 15.294 19.6763 12.8335C19.6763 8.97572 16.549 5.84839 12.6912 5.84839C8.83346 5.84839 5.70613 8.97572 5.70613 12.8335C5.70613 15.294 6.97838 17.4574 8.90092 18.7018C7.76912 18.3718 6.75257 17.8993 5.90056 17.3199C4.17371 16.1457 3.14821 14.5542 3.14821 12.8335C3.14821 7.56302 7.42076 3.29047 12.6912 3.29047ZM19.086 12.8335C19.086 9.30172 16.223 6.43867 12.6912 6.43867C9.15947 6.43867 6.29642 9.30172 6.29642 12.8335C6.29642 13.6483 6.92542 14.4558 8.09881 15.077C8.71836 15.405 9.46994 15.6687 10.3114 15.8433C9.42377 15.1405 8.85434 14.0535 8.85434 12.8335C8.85434 10.7144 10.5722 8.99659 12.6912 8.99659C14.8103 8.99659 16.5281 10.7144 16.5281 12.8335C16.5281 14.0535 15.9587 15.1405 15.0711 15.8433C15.9125 15.6687 16.6641 15.405 17.2836 15.077C18.457 14.4558 19.086 13.6483 19.086 12.8335ZM7.82262 15.5987C9.08372 16.2663 10.8055 16.6704 12.6912 16.6704C14.5769 16.6704 16.2987 16.2663 17.5598 15.5987C18.0418 15.3435 18.4672 15.0432 18.8078 14.7049C18.0076 17.3236 15.5718 19.2283 12.6912 19.2283C9.8106 19.2283 7.37484 17.3236 6.57461 14.7049C6.91524 15.0432 7.34064 15.3435 7.82262 15.5987ZM5.56863 17.808C7.40405 19.0561 9.92315 19.8186 12.6912 19.8186C15.4593 19.8186 17.9784 19.0561 19.8138 17.808C20.5469 17.3095 21.175 16.7301 21.6649 16.088C20.3343 19.756 16.8188 22.3765 12.6912 22.3765C8.56366 22.3765 5.04815 19.756 3.71756 16.088C4.20745 16.7301 4.83555 17.3095 5.56863 17.808ZM12.6912 22.9668C9.04675 22.9668 5.73617 21.848 3.33025 20.0254C2.34728 19.2807 1.51313 18.4163 0.870262 17.4615C2.71977 22.1819 7.31512 25.5247 12.6912 25.5247C18.0673 25.5247 22.6627 22.1819 24.5122 17.4615C23.8693 18.4163 23.0352 19.2807 22.0522 20.0254C19.6463 21.848 16.3357 22.9668 12.6912 22.9668Z" fill="#1F4451"/>
</svg>
