<?xml version="1.0" encoding="UTF-8" standalone="no"?>
<!-- Created with Inkscape (http://www.inkscape.org/) -->

<svg
   width="6.715764mm"
   height="6.7157726mm"
   viewBox="0 0 6.715764 6.7157726"
   version="1.1"
   id="svg1"
   xml:space="preserve"
   xmlns="http://www.w3.org/2000/svg"
   xmlns:svg="http://www.w3.org/2000/svg"><defs
     id="defs1" /><g
     id="layer1"
     transform="translate(-82.814585,-144.25272)"><g
       style="fill:none"
       id="g1"
       transform="matrix(0.26458333,0,0,0.26458333,82.814584,144.21507)"><path
         fill-rule="evenodd"
         clip-rule="evenodd"
         d="M 0,12.8335 C 0,5.82431 5.68205,0.142257 12.6912,0.142257 c 7.0092,0 12.6912,5.682053 12.6912,12.691243 0,2.6043 -1.3926,4.9834 -3.6867,6.7213 -1.0949,0.8295 -2.3922,1.5099 -3.8327,1.9947 2.9708,-1.7666 4.9615,-5.0088 4.9615,-8.716 0,-5.59649 -4.5368,-10.13332 -10.1333,-10.13332 -5.59645,0 -10.13328,4.53683 -10.13328,10.13332 0,3.7072 1.99074,6.9494 4.96152,8.716 C 6.07889,21.0647 4.78162,20.3843 3.6867,19.5548 1.39267,17.8169 0,15.4378 0,12.8335 Z M 12.6912,3.29047 c 5.2705,0 9.543,4.27255 9.543,9.54303 0,1.7207 -1.0255,3.3122 -2.7523,4.4864 -0.852,0.5794 -1.8686,1.0519 -3.0004,1.3819 1.9226,-1.2444 3.1948,-3.4078 3.1948,-5.8683 0,-3.85778 -3.1273,-6.98511 -6.9851,-6.98511 -3.85774,0 -6.98507,3.12733 -6.98507,6.98511 0,2.4605 1.27225,4.6239 3.19479,5.8683 -1.1318,-0.33 -2.14835,-0.8025 -3.00036,-1.3819 -1.72685,-1.1742 -2.75235,-2.7657 -2.75235,-4.4864 0,-5.27048 4.27255,-9.54303 9.54299,-9.54303 z m 6.3948,9.54303 c 0,-3.53178 -2.863,-6.39483 -6.3948,-6.39483 -3.53173,0 -6.39478,2.86305 -6.39478,6.39483 0,0.8148 0.629,1.6223 1.80239,2.2435 0.61955,0.328 1.37113,0.5917 2.21259,0.7663 -0.88763,-0.7028 -1.45706,-1.7898 -1.45706,-3.0098 0,-2.1191 1.71786,-3.83691 3.83686,-3.83691 2.1191,0 3.8369,1.71781 3.8369,3.83691 0,1.22 -0.5694,2.307 -1.457,3.0098 0.8414,-0.1746 1.593,-0.4383 2.2125,-0.7663 1.1734,-0.6212 1.8024,-1.4287 1.8024,-2.2435 z M 7.82262,15.5987 c 1.2611,0.6676 2.98288,1.0717 4.86858,1.0717 1.8857,0 3.6075,-0.4041 4.8686,-1.0717 0.482,-0.2552 0.9074,-0.5555 1.248,-0.8938 -0.8002,2.6187 -3.236,4.5234 -6.1166,4.5234 -2.8806,0 -5.31636,-1.9047 -6.11659,-4.5234 0.34063,0.3383 0.76603,0.6386 1.24801,0.8938 z M 5.56863,17.808 c 1.83542,1.2481 4.35452,2.0106 7.12257,2.0106 2.7681,0 5.2872,-0.7625 7.1226,-2.0106 0.7331,-0.4985 1.3612,-1.0779 1.8511,-1.72 -1.3306,3.668 -4.8461,6.2885 -8.9737,6.2885 -4.12754,0 -7.64305,-2.6205 -8.97364,-6.2885 0.48989,0.6421 1.11799,1.2215 1.85107,1.72 z m 7.12257,5.1588 c -3.64445,0 -6.95503,-1.1188 -9.36095,-2.9414 -0.98297,-0.7447 -1.81712,-1.6091 -2.459988,-2.5639 1.849508,4.7204 6.444858,8.0632 11.820938,8.0632 5.3761,0 9.9715,-3.3428 11.821,-8.0632 -0.6429,0.9548 -1.477,1.8192 -2.46,2.5639 -2.4059,1.8226 -5.7165,2.9414 -9.361,2.9414 z"
         fill="#1f4451"
         id="path1" /></g></g></svg>
